<?xml version="1.0" encoding="UTF-8"?><!DOCTYPE svg PUBLIC "-//W3C//DTD SVG 1.1//EN" "http://www.w3.org/Graphics/SVG/1.1/DTD/svg11.dtd"><svg xmlns="http://www.w3.org/2000/svg" xmlns:xlink="http://www.w3.org/1999/xlink"><symbol id="close" viewBox="0 0 15.642 15.642"><path fill-rule="evenodd" d="M8.882 7.821l6.541-6.541A.75.75 0 1 0 14.362.219L7.821 6.76 1.28.22A.75.75 0 1 0 .219 1.281L6.76 7.822l-6.54 6.54a.75.75 0 0 0 1.06 1.061l6.541-6.541 6.541 6.541a.75.75 0 1 0 1.06-1.061l-6.54-6.541z"/></symbol><symbol id="half-star" viewBox="0 0 13 12"><path d="M10.62 11.88L6.71 9.84l-3.74 2.04.68-4.25L.59 4.57l4.25-.68L6.88.15l1.87 3.74 4.25.68-3.06 3.06.68 4.25z" fill="#828282"/><path d="M6.71.15L4.84 3.89l-4.25.68 3.06 3.06-.68 4.25 3.74-2.04v.17V.15z" fill="#FEC601"/></symbol><symbol id="star" viewBox="0 0 14 12"><path d="M10.75 11.88L7.01 9.84l-3.74 2.04.51-4.25L.89 4.57l4.25-.68L7.01.15l2.04 3.74 4.08.68-2.89 3.06.51 4.25z"/></symbol><symbol id="youtube-logo" viewBox="0 0 42 30"><path d="M41.976 11.484a45.972 45.972 0 0 0-.199-3.199 29.109 29.109 0 0 0-.504-3.457 5.451 5.451 0 0 0-1.629-2.883c-.835-.781-1.808-1.234-2.918-1.36C33.257.196 28.015 0 21 0 13.984 0 8.742.195 5.274.586a4.941 4.941 0 0 0-2.907 1.36A5.481 5.481 0 0 0 .75 4.827a25.94 25.94 0 0 0-.527 3.457 45.987 45.987 0 0 0-.2 3.2C.009 12.327 0 13.5 0 15s.008 2.672.024 3.516c.015.844.082 1.91.199 3.199s.285 2.441.504 3.457a5.447 5.447 0 0 0 1.628 2.883c.837.78 1.81 1.234 2.919 1.359 3.468.39 8.71.586 15.726.586s12.257-.195 15.726-.586a4.942 4.942 0 0 0 2.907-1.36 5.482 5.482 0 0 0 1.617-2.882c.234-1.016.41-2.168.527-3.457.117-1.289.183-2.356.2-3.2C41.991 17.673 42 16.5 42 15s-.008-2.672-.024-3.516zm-12.68 4.782l-11.999 7.5A1.337 1.337 0 0 1 16.5 24c-.234 0-.477-.063-.726-.188-.516-.28-.774-.719-.774-1.312v-15c0-.593.258-1.03.774-1.312.53-.282 1.039-.266 1.523.047l12 7.5C29.765 14 30 14.422 30 15c0 .578-.235 1-.703 1.266z" fill="#D90000"/></symbol></svg>