<svg width="42" height="30" viewBox="0 0 42 30" fill="none" xmlns="http://www.w3.org/2000/svg">
<path d="M41.9761 11.4844C41.9608 10.6407 41.894 9.57406 41.7772 8.28532C41.6597 6.99584 41.4917 5.84345 41.2732 4.82807C41.0231 3.68759 40.4801 2.72656 39.6443 1.9453C38.8086 1.16388 37.8358 0.710905 36.7261 0.585716C33.2571 0.195376 28.015 0 20.9998 0C13.9844 0 8.74224 0.195376 5.2735 0.585716C4.16396 0.710822 3.19505 1.16388 2.36716 1.9453C1.53895 2.72631 0.999863 3.68734 0.749815 4.82807C0.515693 5.84378 0.339691 6.99609 0.222548 8.28532C0.105568 9.57406 0.0390751 10.6403 0.02356 11.4844C0.00771651 12.3281 0 13.4999 0 15C0 16.5 0.00771651 17.672 0.0236421 18.5156C0.0391572 19.3598 0.105651 20.4259 0.22263 21.7146C0.339773 23.004 0.507812 24.1564 0.726584 25.1719C0.976632 26.3127 1.5195 27.2736 2.35542 28.0545C3.19152 28.8358 4.16437 29.2888 5.27358 29.414C8.74232 29.8047 13.9841 30 20.9998 30C28.0158 30 33.2572 29.8047 36.7262 29.414C37.8359 29.2889 38.8044 28.8358 39.6326 28.0545C40.4608 27.2735 40.9996 26.3122 41.2496 25.1719C41.4839 24.1564 41.6597 23.004 41.7772 21.7146C41.894 20.426 41.9604 19.3593 41.9761 18.5156C41.9918 17.672 41.9997 16.5 41.9997 15C41.9997 13.4999 41.9919 12.3281 41.9761 11.4844ZM29.2967 16.2657L17.297 23.7654C17.0781 23.9216 16.8122 23.9997 16.4999 23.9997C16.2657 23.9997 16.0235 23.937 15.7735 23.812C15.258 23.5311 15.0003 23.0934 15.0003 22.4998V7.50029C15.0003 6.90685 15.2581 6.46915 15.7735 6.18799C16.3049 5.90633 16.8126 5.9221 17.297 6.23486L29.2968 13.7347C29.7654 13.9998 29.9997 14.4219 29.9997 15.0001C29.9997 15.578 29.7653 16.0003 29.2967 16.2657Z" fill="#D90000"/>
</svg>
